<?xml version="1.0" encoding="utf-8"?>
<!-- Generator: Adobe Illustrator 16.0.0, SVG Export Plug-In . SVG Version: 6.00 Build 0)  -->
<!DOCTYPE svg PUBLIC "-//W3C//DTD SVG 1.1//EN" "http://www.w3.org/Graphics/SVG/1.1/DTD/svg11.dtd">
<svg version="1.1" id="Layer_1" xmlns="http://www.w3.org/2000/svg" xmlns:xlink="http://www.w3.org/1999/xlink" x="0px" y="0px"
	 width="452.051px" height="150px" viewBox="0 0 452.051 150" enable-background="new 0 0 452.051 150" xml:space="preserve">
<g>
	<g>
		<path fill="#FFFFFF" d="M97.219,132.23l-0.169,2.365c-1.466,1.014-3.494,1.521-6.084,1.521c-3.38,0-6.253-1.127-8.619-3.381
			c-2.366-2.252-3.549-6.307-3.549-12.168v-2.365c-2.255,5.746-6.676,10.17-13.267,13.268c-6.591,3.096-13.718,4.646-21.378,4.646
			c-8.226,0-14.677-1.746-19.351-5.238c-4.677-3.492-7.014-8.393-7.014-14.703c0-6.646,2.421-11.887,7.267-15.718
			c4.843-3.829,12.786-6.76,23.829-8.788l29.913-5.576V75.615c0-7.885-2.311-14.027-6.929-18.421
			c-4.621-4.394-11.268-6.591-19.942-6.591c-7.774,0-14.141,1.579-19.097,4.732c-4.959,3.155-8.677,8.226-11.154,15.21l-2.197-1.69
			c2.591-6.985,6.533-12.168,11.83-15.548c5.294-3.38,12.168-5.07,20.618-5.07c9.575,0,16.9,2.339,21.97,7.014
			c5.07,4.676,7.605,11.465,7.605,20.364v45.969c0,4.055,0.816,7.098,2.451,9.125c1.632,2.027,3.914,3.043,6.845,3.043
			C93.725,133.752,95.867,133.244,97.219,132.23z M60.123,131.047c5.239-1.801,9.66-4.59,13.267-8.365
			c3.604-3.773,5.408-8.365,5.408-13.773V88.459l-28.054,5.239c-10.816,2.028-18.563,4.846-23.237,8.45
			c-4.677,3.607-7.014,8.281-7.014,14.027c0,5.521,2.168,9.83,6.506,12.928c4.336,3.1,10.335,4.648,17.999,4.648
			C49.84,133.752,54.884,132.852,60.123,131.047z"/>
		<path fill="#FFFFFF" d="M145.214,52.293l-1.521,2.028c-1.241-1.238-2.62-2.168-4.141-2.789c-1.521-0.618-3.747-0.93-6.676-0.93
			c-5.07,0-9.691,1.635-13.858,4.901c-4.169,3.269-7.465,7.579-9.886,12.928c-2.424,5.353-3.634,10.958-3.634,16.815v49.18h-2.704
			v-84.5h2.704v21.97c1.915-6.871,5.35-12.533,10.309-16.985c4.957-4.449,10.758-6.675,17.407-6.675
			C138.51,48.237,142.51,49.589,145.214,52.293z"/>
		<path fill="#FFFFFF" d="M176.815,86.262l-22.308,20.787v27.379h-2.704V11.057h2.704v92.274l57.46-53.404h4.056l-37.18,34.476
			l38.025,50.024h-3.38L176.815,86.262z"/>
	</g>
</g>
<g>
	<path id="path28_2_" fill="none" stroke="#FFFFFF" stroke-width="12" d="M335.535,79.37
		c0,28.564-23.155,51.723-51.721,51.723c-28.567,0-51.723-23.156-51.723-51.723c0-28.563,23.155-51.72,51.722-51.72
		C312.38,27.648,335.535,50.807,335.535,79.37L335.535,79.37z"/>
	<path id="path34_1_" opacity="0.7" fill="#FFFFFF" d="M243.712,79.37
		c0,22.148,17.956,40.102,40.103,40.102c22.147,0,40.103-17.953,40.103-40.102h-21.289l-0.215-14.773L283.6,53.983l-18.598,10.99
		V79.37"/>
</g>
<g>
	<path fill="#FFFFFF" d="M434.267,45.105l-11.661,9.464c-3.38-7.436-7.409-12.701-12.083-15.801
		c-4.677-3.098-11.069-4.647-19.182-4.647c-8.563,0-15.295,1.774-20.195,5.323c-4.901,3.549-7.352,8.086-7.352,13.604
		c0,3.607,0.956,6.591,2.873,8.957c1.914,2.366,5.097,4.423,9.548,6.168c4.45,1.749,10.618,3.296,18.506,4.648
		c14.759,2.479,25.207,6.197,31.35,11.153c6.14,4.959,9.211,11.83,9.211,20.618c0,6.312-1.775,11.859-5.324,16.646
		c-3.549,4.79-8.593,8.508-15.125,11.154c-6.536,2.646-14.085,3.972-22.646,3.972c-11.268,0-20.871-2.197-28.814-6.592
		c-7.942-4.394-14-10.251-18.167-17.575l11.661-9.465c3.042,6.649,7.521,11.804,13.436,15.464
		c5.914,3.662,13.321,5.492,22.223,5.492c8.788,0,15.772-1.605,20.956-4.816c5.182-3.211,7.774-7.745,7.774-13.604
		c0-4.956-2.255-8.898-6.76-11.83c-4.508-2.928-12.506-5.407-23.998-7.436c-14.872-2.591-25.408-6.309-31.604-11.154
		c-6.197-4.843-9.295-11.603-9.295-20.28c0-5.97,1.69-11.491,5.07-16.562s8.223-9.097,14.534-12.084
		c6.308-2.983,13.631-4.479,21.97-4.479C411.114,21.445,425.479,29.333,434.267,45.105z"/>
</g>
</svg>
